# xmcd
#
# Track frame offsets: 
#        150
#        10808
#        23157
#        37578
#        55520
#        76689
#        96054
#        109154
#        139968
#        151543
#        163403
#        184518
#        197283
#        220480
#
# Disc length: 3059 seconds
#
# Revision: 0
# Processed by: cddbd v1.5.2PL0 Copyright (c) Steve Scherf et al.
# Submitted via: ExactAudioCopy v0.95a5
#
DISCID=9f0bf10e
DTITLE=Various Artist - Funk Vol 3
DYEAR=1900
DGENRE=Funk
TTITLE0=Soul Sister Brown Sugar/ Sam and Dave
TTITLE1=I got The Feelin' (Live)/ James Brown
TTITLE2=Funky Dish Rag/ Little Richard and Jimmy Hendrix
TTITLE3=Sugar Daddy/ Anne Sexton
TTITLE4=The Right Combination/ Curtis Mayfield and Linda Clifford
TTITLE5=The Message/ Cymande
TTITLE6=A Little Soul Party/ The Ohio Players
TTITLE7=Pusherman (Live)/ Curtis Mayfield
TTITLE8=The Funky Judge/ Bull and The Matadors
TTITLE9=Funky Street/ Sam and Dave
TTITLE10=Still On The Loose/ Fred Wesley
TTITLE11=Bumpin'/ Groundhog
TTITLE12=It's Too Funky In Here (Live)/ James Brown
TTITLE13=Mama's Got The Wagon/ Mickey Murray
EXTD=
EXTT0=
EXTT1=
EXTT2=
EXTT3=
EXTT4=
EXTT5=
EXTT6=
EXTT7=
EXTT8=
EXTT9=
EXTT10=
EXTT11=
EXTT12=
EXTT13=
PLAYORDER=
